<?xml version="1.0" encoding="UTF-8" standalone="no"?>
<svg
   xmlns:dc="http://purl.org/dc/elements/1.1/"
   xmlns:cc="http://creativecommons.org/ns#"
   xmlns:rdf="http://www.w3.org/1999/02/22-rdf-syntax-ns#"
   xmlns:svg="http://www.w3.org/2000/svg"
   xmlns="http://www.w3.org/2000/svg"
   xmlns:sodipodi="http://sodipodi.sourceforge.net/DTD/sodipodi-0.dtd"
   xmlns:inkscape="http://www.inkscape.org/namespaces/inkscape"
   height="512pt"
   version="1.1"
   viewBox="-38 0 512 512.00142"
   width="512pt"
   id="svg9"
   sodipodi:docname="icon1.svg"
   inkscape:version="0.92.4 (5da689c313, 2019-01-14)">
  <metadata
     id="metadata15">
    <rdf:RDF>
      <cc:Work
         rdf:about="">
        <dc:format>image/svg+xml</dc:format>
        <dc:type
           rdf:resource="http://purl.org/dc/dcmitype/StillImage" />
        <dc:title></dc:title>
      </cc:Work>
    </rdf:RDF>
  </metadata>
  <defs
     id="defs13" />
  <sodipodi:namedview
     pagecolor="#ffffff"
     bordercolor="#666666"
     borderopacity="1"
     objecttolerance="10"
     gridtolerance="10"
     guidetolerance="10"
     inkscape:pageopacity="0"
     inkscape:pageshadow="2"
     inkscape:window-width="1600"
     inkscape:window-height="837"
     id="namedview11"
     showgrid="false"
     inkscape:zoom="0.34570313"
     inkscape:cx="-470.14981"
     inkscape:cy="49.188109"
     inkscape:window-x="-8"
     inkscape:window-y="-8"
     inkscape:window-maximized="1"
     inkscape:current-layer="svg9" />
  <path
     inkscape:connector-curvature="0"
     id="path2"
     style="fill:#d40000;fill-opacity:1;fill-rule:nonzero;stroke:none"
     d="m 435.48828,138.91797 -0.0156,-0.39844 C 435.25,133.60156 435.10156,128.39844 435.01172,122.60938 434.59375,94.378906 412.15234,71.027344 383.91797,69.449219 325.05078,66.164062 279.51172,46.96875 240.60156,9.042969 l -0.33203,-0.316407 c -12.69141,-11.636718 -31.83594,-11.636718 -44.53125,0 l -0.33203,0.316407 C 156.49609,46.96875 110.95703,66.164062 52.089844,69.453125 23.859375,71.027344 1.414062,94.378906 0.996094,122.61328 c -0.085938,5.75 -0.238282,10.95313 -0.460938,15.90625 l -0.023437,0.92578 c -1.144531,60.02735 -2.566407,134.73438 22.425781,202.54297 13.742188,37.28906 34.554688,69.70313 61.855469,96.34766 31.093751,30.34375 71.820311,54.43359 121.046871,71.59765 1.60157,0.5586 3.26563,1.01172 4.96094,1.35157 2.39063,0.47656 4.79688,0.71484 7.20313,0.71484 2.40625,0 4.8164,-0.23828 7.20312,-0.71484 1.69531,-0.33985 3.37109,-0.79688 4.98047,-1.35938 49.16797,-17.19531 89.85156,-41.29687 120.91797,-71.63672 27.28906,-26.65234 48.10156,-59.07422 61.85547,-96.37109 25.08593,-68.01172 23.66797,-142.85938 22.52734,-203 z m -50.71484,192.60547 c -26.35938,71.46875 -80.16797,120.55078 -164.5,150.04297 -0.30078,0.10156 -0.6211,0.1914 -0.95313,0.25781 -0.87109,0.17187 -1.75781,0.17187 -2.64062,-0.004 -0.32813,-0.0664 -0.64844,-0.15234 -0.94532,-0.2539 C 131.3125,452.12891 77.46875,403.07422 51.128906,331.60156 28.09375,269.09766 29.398438,200.51953 30.550781,140.01953 l 0.0078,-0.33594 c 0.234375,-5.19922 0.390625,-10.64453 0.476562,-16.6289 0.1875,-12.53516 10.171875,-22.90625 22.730469,-23.605471 33.3125,-1.859375 62.578128,-8.296875 89.468748,-19.679688 26.85547,-11.367187 50.70704,-27.390625 72.91016,-48.984375 1.12891,-0.953125 2.59375,-0.957031 3.71875,0 22.20703,21.59375 46.05859,37.617188 72.91016,48.984375 26.89062,11.382813 56.15625,17.820313 89.47265,19.679688 12.5586,0.699221 22.54297,11.070311 22.72657,23.609371 0.0898,6.01563 0.24609,11.46094 0.48046,16.625 1.14844,60.57032 2.42188,129.20313 -20.67968,191.83985 z m 0,0" />
  <path
     inkscape:connector-curvature="0"
     id="path6"
     style="fill:#d40000;fill-opacity:1;fill-rule:nonzero;stroke:none;stroke-width:1"
     d="m 276.12353,185.70783 -91.43083,91.43083 -24.81624,-24.81625 c -9.05149,-9.05149 -23.7255,-9.05149 -32.77699,0 -9.04545,9.05148 -9.04545,23.72548 0,32.77095 l 41.20776,41.20774 c 4.52573,4.52575 10.4556,6.7856 16.38547,6.7856 5.92986,0 11.85973,-2.25985 16.38548,-6.7856 L 308.9005,218.47878 c 9.04546,-9.05149 9.04546,-23.7255 0,-32.77095 -9.05148,-9.05751 -23.72548,-9.05751 -32.77697,0 z m 0,0" />
</svg>
